<?xml version="1.0" encoding="UTF-8" standalone="no"?>
<!DOCTYPE svg PUBLIC "-//W3C//DTD SVG 1.1//EN"
 "http://www.w3.org/Graphics/SVG/1.1/DTD/svg11.dtd">
<!-- Generated by graphviz version 14.1.5 (20260411.2331)
 -->
<!-- Title: packages_toplevel Pages: 1 -->
<svg width="368pt" height="360pt"
 viewBox="0.00 0.00 368.00 360.00" xmlns="http://www.w3.org/2000/svg" xmlns:xlink="http://www.w3.org/1999/xlink">
<g id="graph0" class="graph" transform="scale(1 1) rotate(0) translate(4 355.5)">
<title>packages_toplevel</title>
<polygon fill="white" stroke="none" points="-4,4 -4,-355.5 363.5,-355.5 363.5,4 -4,4"/>
<text xml:space="preserve" text-anchor="middle" x="179.75" y="-334.2" font-family="Helvetica,sans-Serif" font-size="14.00">eragent — pyreverse 聚合 (depth=1 顶层,4 包,88 import)</text>
<!-- api -->
<g id="node1" class="node">
<title>api</title>
<path fill="#7fa7d4" stroke="black" d="M262.17,-323.25C262.17,-323.25 232.17,-323.25 232.17,-323.25 226.17,-323.25 220.17,-317.25 220.17,-311.25 220.17,-311.25 220.17,-299.25 220.17,-299.25 220.17,-293.25 226.17,-287.25 232.17,-287.25 232.17,-287.25 262.17,-287.25 262.17,-287.25 268.17,-287.25 274.17,-293.25 274.17,-299.25 274.17,-299.25 274.17,-311.25 274.17,-311.25 274.17,-317.25 268.17,-323.25 262.17,-323.25"/>
<text xml:space="preserve" text-anchor="middle" x="247.17" y="-300.8" font-family="Helvetica,sans-Serif" font-size="11.00">api</text>
</g>
<!-- config -->
<g id="node2" class="node">
<title>config</title>
<path fill="#d4b886" stroke="black" d="M114.17,-227.5C114.17,-227.5 84.17,-227.5 84.17,-227.5 78.17,-227.5 72.17,-221.5 72.17,-215.5 72.17,-215.5 72.17,-203.5 72.17,-203.5 72.17,-197.5 78.17,-191.5 84.17,-191.5 84.17,-191.5 114.17,-191.5 114.17,-191.5 120.17,-191.5 126.17,-197.5 126.17,-203.5 126.17,-203.5 126.17,-215.5 126.17,-215.5 126.17,-221.5 120.17,-227.5 114.17,-227.5"/>
<text xml:space="preserve" text-anchor="middle" x="99.17" y="-205.05" font-family="Helvetica,sans-Serif" font-size="11.00">config</text>
</g>
<!-- api&#45;&gt;config -->
<g id="edge1" class="edge">
<title>api&#45;&gt;config</title>
<path fill="none" stroke="#555555" stroke-width="2" d="M220.01,-294.08C201.5,-286.56 176.83,-275.38 156.92,-262.25 145.75,-254.88 134.54,-245.42 125.01,-236.62"/>
<polygon fill="#555555" stroke="#555555" stroke-width="2" points="127.6,-234.25 117.95,-229.88 122.77,-239.32 127.6,-234.25"/>
<text xml:space="preserve" text-anchor="middle" x="159.55" y="-253.7" font-family="Helvetica,sans-Serif" font-size="9.00">4</text>
</g>
<!-- core -->
<g id="node3" class="node">
<title>core</title>
<path fill="#aaaaaa" stroke="black" d="M199.17,-131.75C199.17,-131.75 169.17,-131.75 169.17,-131.75 163.17,-131.75 157.17,-125.75 157.17,-119.75 157.17,-119.75 157.17,-107.75 157.17,-107.75 157.17,-101.75 163.17,-95.75 169.17,-95.75 169.17,-95.75 199.17,-95.75 199.17,-95.75 205.17,-95.75 211.17,-101.75 211.17,-107.75 211.17,-107.75 211.17,-119.75 211.17,-119.75 211.17,-125.75 205.17,-131.75 199.17,-131.75"/>
<text xml:space="preserve" text-anchor="middle" x="184.17" y="-109.3" font-family="Helvetica,sans-Serif" font-size="11.00">core</text>
</g>
<!-- api&#45;&gt;core -->
<g id="edge2" class="edge">
<title>api&#45;&gt;core</title>
<path fill="none" stroke="#555555" stroke-width="5" d="M243.64,-287.06C237.62,-259.14 224.27,-202.47 206.17,-156.75 204.82,-153.33 203.27,-149.82 201.63,-146.37"/>
<polygon fill="#555555" stroke="#555555" stroke-width="5" points="205.53,-144.39 197.07,-137.48 197.74,-148.38 205.53,-144.39"/>
<text xml:space="preserve" text-anchor="middle" x="234.38" y="-205.82" font-family="Helvetica,sans-Serif" font-size="9.00">20</text>
</g>
<!-- modules -->
<g id="node4" class="node">
<title>modules</title>
<path fill="#8eb56e" stroke="black" d="M245.42,-36C245.42,-36 212.92,-36 212.92,-36 206.92,-36 200.92,-30 200.92,-24 200.92,-24 200.92,-12 200.92,-12 200.92,-6 206.92,0 212.92,0 212.92,0 245.42,0 245.42,0 251.42,0 257.42,-6 257.42,-12 257.42,-12 257.42,-24 257.42,-24 257.42,-30 251.42,-36 245.42,-36"/>
<text xml:space="preserve" text-anchor="middle" x="229.17" y="-13.55" font-family="Helvetica,sans-Serif" font-size="11.00">modules</text>
</g>
<!-- api&#45;&gt;modules -->
<g id="edge3" class="edge">
<title>api&#45;&gt;modules</title>
<path fill="none" stroke="#555555" stroke-width="1.2" d="M253.3,-286.91C255.64,-279.43 258.02,-270.51 259.17,-262.25 259.77,-257.96 259.45,-256.82 259.17,-252.5 254.42,-178.28 241.27,-91.6 234.06,-47.67"/>
<polygon fill="#555555" stroke="#555555" stroke-width="1.2" points="237.54,-47.29 232.45,-38 230.64,-48.44 237.54,-47.29"/>
<text xml:space="preserve" text-anchor="middle" x="253.56" y="-157.95" font-family="Helvetica,sans-Serif" font-size="9.00">1</text>
</g>
<!-- config&#45;&gt;core -->
<g id="edge4" class="edge">
<title>config&#45;&gt;core</title>
<path fill="none" stroke="#555555" stroke-width="1.2" d="M114.76,-191.3C127.62,-177.12 146.07,-156.78 160.71,-140.63"/>
<polygon fill="#555555" stroke="#555555" stroke-width="1.2" points="163.05,-143.26 167.17,-133.5 157.86,-138.56 163.05,-143.26"/>
<text xml:space="preserve" text-anchor="middle" x="146.85" y="-157.95" font-family="Helvetica,sans-Serif" font-size="9.00">1</text>
</g>
<!-- core&#45;&gt;api -->
<g id="edge5" class="edge">
<title>core&#45;&gt;api</title>
<path fill="none" stroke="#555555" stroke-width="2.5" d="M185.86,-131.98C188.42,-154.48 194.29,-194.82 205.92,-227.5 211.79,-243.98 220.77,-261.22 228.85,-275.19"/>
<polygon fill="#555555" stroke="#555555" stroke-width="2.5" points="225.82,-276.94 233.97,-283.72 231.83,-273.35 225.82,-276.94"/>
<text xml:space="preserve" text-anchor="middle" x="208.55" y="-205.82" font-family="Helvetica,sans-Serif" font-size="9.00">6</text>
</g>
<!-- core&#45;&gt;config -->
<g id="edge6" class="edge">
<title>core&#45;&gt;config</title>
<path fill="none" stroke="#555555" stroke-width="2.5" d="M156.77,-131.15C146.56,-138.16 135.41,-146.98 126.92,-156.75 121.11,-163.44 116.05,-171.55 111.9,-179.34"/>
<polygon fill="#555555" stroke="#555555" stroke-width="2.5" points="108.88,-177.55 107.63,-188.07 115.17,-180.63 108.88,-177.55"/>
<text xml:space="preserve" text-anchor="middle" x="129.55" y="-157.95" font-family="Helvetica,sans-Serif" font-size="9.00">6</text>
</g>
<!-- core&#45;&gt;modules -->
<g id="edge7" class="edge">
<title>core&#45;&gt;modules</title>
<path fill="none" stroke="#555555" stroke-width="3" d="M192.43,-95.55C198.6,-82.68 207.22,-64.74 214.55,-49.47"/>
<polygon fill="#555555" stroke="#555555" stroke-width="3" points="217.68,-51.03 218.85,-40.5 211.37,-48 217.68,-51.03"/>
<text xml:space="preserve" text-anchor="middle" x="210.65" y="-62.2" font-family="Helvetica,sans-Serif" font-size="9.00">8</text>
</g>
<!-- modules&#45;&gt;api -->
<g id="edge8" class="edge">
<title>modules&#45;&gt;api</title>
<path fill="none" stroke="#555555" stroke-width="2.2" d="M244.11,-36.39C249.6,-43.59 255.39,-52.29 259.17,-61 293.28,-139.59 278.37,-166.87 281.17,-252.5 281.31,-256.83 282.62,-258.17 281.17,-262.25 279.39,-267.28 276.72,-272.15 273.65,-276.68"/>
<polygon fill="#555555" stroke="#555555" stroke-width="2.2" points="270.92,-274.49 267.51,-284.52 276.43,-278.81 270.92,-274.49"/>
<text xml:space="preserve" text-anchor="middle" x="284.7" y="-157.95" font-family="Helvetica,sans-Serif" font-size="9.00">5</text>
</g>
<!-- modules&#45;&gt;config -->
<g id="edge9" class="edge">
<title>modules&#45;&gt;config</title>
<path fill="none" stroke="#555555" stroke-width="3.2" d="M201.94,-36.24C181.86,-50.17 155.14,-71.42 137.92,-95.75 120.66,-120.14 110.55,-152.88 105,-176.8"/>
<polygon fill="#555555" stroke="#555555" stroke-width="3.2" points="101.64,-175.82 103,-186.32 108.48,-177.26 101.64,-175.82"/>
<text xml:space="preserve" text-anchor="middle" x="140.55" y="-110.08" font-family="Helvetica,sans-Serif" font-size="9.00">9</text>
</g>
<!-- modules&#45;&gt;core -->
<g id="edge10" class="edge">
<title>modules&#45;&gt;core</title>
<path fill="none" stroke="#555555" stroke-width="5" d="M206.42,-36.37C199.14,-43.2 191.88,-51.65 187.67,-61 185.08,-66.76 183.64,-73.24 182.92,-79.63"/>
<polygon fill="#555555" stroke="#555555" stroke-width="5" points="178.56,-79.34 182.6,-89.48 187.3,-79.63 178.56,-79.34"/>
<text xml:space="preserve" text-anchor="middle" x="192.92" y="-62.2" font-family="Helvetica,sans-Serif" font-size="9.00">28</text>
</g>
</g>
</svg>
